<mxfile host="app.diagrams.net" agent="Mozilla/5.0 (Windows NT 10.0; Win64; x64) AppleWebKit/537.36 (KHTML, like Gecko) Chrome/131.0.0.0 Safari/537.36" version="25.0.3">
  <diagram id="C5RBs43oDa-KdzZeNtuy" name="Page-1">
    <mxGraphModel dx="642" dy="2748" grid="1" gridSize="10" guides="1" tooltips="1" connect="1" arrows="1" fold="1" page="1" pageScale="1" pageWidth="827" pageHeight="1169" math="0" shadow="0">
      <root>
        <mxCell id="WIyWlLk6GJQsqaUBKTNV-0" />
        <mxCell id="WIyWlLk6GJQsqaUBKTNV-1" parent="WIyWlLk6GJQsqaUBKTNV-0" />
        <mxCell id="tJLfA4mEFXPNT2gWlWkk-2" value="" style="edgeStyle=orthogonalEdgeStyle;rounded=0;orthogonalLoop=1;jettySize=auto;html=1;" edge="1" parent="WIyWlLk6GJQsqaUBKTNV-1" source="tJLfA4mEFXPNT2gWlWkk-0" target="tJLfA4mEFXPNT2gWlWkk-1">
          <mxGeometry relative="1" as="geometry" />
        </mxCell>
        <mxCell id="tJLfA4mEFXPNT2gWlWkk-0" value="INICIO" style="ellipse;whiteSpace=wrap;html=1;aspect=fixed;fillColor=#d80073;fontColor=#ffffff;strokeColor=#A50040;" vertex="1" parent="WIyWlLk6GJQsqaUBKTNV-1">
          <mxGeometry x="215" y="-2220" width="80" height="80" as="geometry" />
        </mxCell>
        <mxCell id="tJLfA4mEFXPNT2gWlWkk-4" value="" style="edgeStyle=orthogonalEdgeStyle;rounded=0;orthogonalLoop=1;jettySize=auto;html=1;" edge="1" parent="WIyWlLk6GJQsqaUBKTNV-1" source="tJLfA4mEFXPNT2gWlWkk-1" target="tJLfA4mEFXPNT2gWlWkk-3">
          <mxGeometry relative="1" as="geometry" />
        </mxCell>
        <mxCell id="tJLfA4mEFXPNT2gWlWkk-1" value="Mostrar Mensaje: &quot;Por favor ingrese la edad del cliente: &quot;" style="shape=parallelogram;perimeter=parallelogramPerimeter;whiteSpace=wrap;html=1;fixedSize=1;fillColor=#ffcc99;strokeColor=#36393d;" vertex="1" parent="WIyWlLk6GJQsqaUBKTNV-1">
          <mxGeometry x="138.13" y="-2090" width="233.75" height="110" as="geometry" />
        </mxCell>
        <mxCell id="tJLfA4mEFXPNT2gWlWkk-6" value="" style="edgeStyle=orthogonalEdgeStyle;rounded=0;orthogonalLoop=1;jettySize=auto;html=1;" edge="1" parent="WIyWlLk6GJQsqaUBKTNV-1" source="tJLfA4mEFXPNT2gWlWkk-3" target="tJLfA4mEFXPNT2gWlWkk-5">
          <mxGeometry relative="1" as="geometry" />
        </mxCell>
        <mxCell id="tJLfA4mEFXPNT2gWlWkk-13" value="" style="edgeStyle=orthogonalEdgeStyle;rounded=0;orthogonalLoop=1;jettySize=auto;html=1;" edge="1" parent="WIyWlLk6GJQsqaUBKTNV-1" source="tJLfA4mEFXPNT2gWlWkk-3" target="tJLfA4mEFXPNT2gWlWkk-9">
          <mxGeometry relative="1" as="geometry" />
        </mxCell>
        <mxCell id="tJLfA4mEFXPNT2gWlWkk-3" value="Si edad es &amp;gt;= 18&amp;nbsp;" style="rhombus;whiteSpace=wrap;html=1;rotation=-1;fillColor=#1ba1e2;strokeColor=#006EAF;fontColor=#ffffff;" vertex="1" parent="WIyWlLk6GJQsqaUBKTNV-1">
          <mxGeometry x="170.63" y="-1930" width="170" height="147" as="geometry" />
        </mxCell>
        <mxCell id="tJLfA4mEFXPNT2gWlWkk-39" style="edgeStyle=none;rounded=0;orthogonalLoop=1;jettySize=auto;html=1;exitX=0.25;exitY=1;exitDx=0;exitDy=0;" edge="1" parent="WIyWlLk6GJQsqaUBKTNV-1" source="tJLfA4mEFXPNT2gWlWkk-5">
          <mxGeometry relative="1" as="geometry">
            <mxPoint x="256" y="-1630" as="targetPoint" />
          </mxGeometry>
        </mxCell>
        <mxCell id="tJLfA4mEFXPNT2gWlWkk-5" value="&lt;div&gt;asignarle a la variable permitido que sea True&amp;nbsp;&lt;/div&gt;&lt;div&gt;&amp;nbsp; &amp;nbsp; &amp;nbsp;&amp;nbsp;&lt;/div&gt;" style="whiteSpace=wrap;html=1;fillColor=#d5e8d4;strokeColor=#82b366;gradientColor=#97d077;" vertex="1" parent="WIyWlLk6GJQsqaUBKTNV-1">
          <mxGeometry x="430" y="-1898.25" width="180.01" height="83.5" as="geometry" />
        </mxCell>
        <mxCell id="tJLfA4mEFXPNT2gWlWkk-7" value="Si" style="rounded=0;whiteSpace=wrap;html=1;fillColor=#008a00;strokeColor=#005700;fontColor=#ffffff;" vertex="1" parent="WIyWlLk6GJQsqaUBKTNV-1">
          <mxGeometry x="354" y="-1898.25" width="60" height="20" as="geometry" />
        </mxCell>
        <mxCell id="tJLfA4mEFXPNT2gWlWkk-16" value="" style="edgeStyle=orthogonalEdgeStyle;rounded=0;orthogonalLoop=1;jettySize=auto;html=1;" edge="1" parent="WIyWlLk6GJQsqaUBKTNV-1" source="tJLfA4mEFXPNT2gWlWkk-9" target="tJLfA4mEFXPNT2gWlWkk-15">
          <mxGeometry relative="1" as="geometry" />
        </mxCell>
        <mxCell id="tJLfA4mEFXPNT2gWlWkk-9" value="asignarle a la variable permitido que sea False" style="rounded=1;whiteSpace=wrap;html=1;fillColor=#d5e8d4;gradientColor=#97d077;strokeColor=#82b366;" vertex="1" parent="WIyWlLk6GJQsqaUBKTNV-1">
          <mxGeometry x="130" y="-1730" width="154.99" height="80" as="geometry" />
        </mxCell>
        <mxCell id="tJLfA4mEFXPNT2gWlWkk-14" value="No" style="rounded=0;whiteSpace=wrap;html=1;fillColor=#ffcccc;strokeColor=#36393d;" vertex="1" parent="WIyWlLk6GJQsqaUBKTNV-1">
          <mxGeometry x="270" y="-1773" width="50" height="20" as="geometry" />
        </mxCell>
        <mxCell id="tJLfA4mEFXPNT2gWlWkk-21" value="" style="edgeStyle=orthogonalEdgeStyle;rounded=0;orthogonalLoop=1;jettySize=auto;html=1;" edge="1" parent="WIyWlLk6GJQsqaUBKTNV-1" source="tJLfA4mEFXPNT2gWlWkk-15" target="tJLfA4mEFXPNT2gWlWkk-20">
          <mxGeometry relative="1" as="geometry" />
        </mxCell>
        <mxCell id="tJLfA4mEFXPNT2gWlWkk-36" value="" style="edgeStyle=orthogonalEdgeStyle;rounded=0;orthogonalLoop=1;jettySize=auto;html=1;" edge="1" parent="WIyWlLk6GJQsqaUBKTNV-1" source="tJLfA4mEFXPNT2gWlWkk-15" target="tJLfA4mEFXPNT2gWlWkk-19">
          <mxGeometry relative="1" as="geometry" />
        </mxCell>
        <mxCell id="tJLfA4mEFXPNT2gWlWkk-15" value="¿Está permitido el ingreso según la edad ?" style="rhombus;whiteSpace=wrap;html=1;rounded=1;fillColor=#1ba1e2;fontColor=#ffffff;strokeColor=#006EAF;" vertex="1" parent="WIyWlLk6GJQsqaUBKTNV-1">
          <mxGeometry x="191.26" y="-1617.5" width="128.74" height="130" as="geometry" />
        </mxCell>
        <mxCell id="tJLfA4mEFXPNT2gWlWkk-17" value="&lt;div&gt;Mostrar Mensaje: &quot;puedes ingresar a la discoteca&quot;&lt;/div&gt;&lt;div&gt;&lt;br&gt;&lt;/div&gt;" style="shape=parallelogram;perimeter=parallelogramPerimeter;whiteSpace=wrap;html=1;fixedSize=1;fillColor=#fad7ac;strokeColor=#b46504;" vertex="1" parent="WIyWlLk6GJQsqaUBKTNV-1">
          <mxGeometry x="440" y="-1587.5" width="180" height="70" as="geometry" />
        </mxCell>
        <mxCell id="tJLfA4mEFXPNT2gWlWkk-32" value="" style="edgeStyle=orthogonalEdgeStyle;rounded=0;orthogonalLoop=1;jettySize=auto;html=1;" edge="1" parent="WIyWlLk6GJQsqaUBKTNV-1" source="tJLfA4mEFXPNT2gWlWkk-20" target="tJLfA4mEFXPNT2gWlWkk-31">
          <mxGeometry relative="1" as="geometry" />
        </mxCell>
        <mxCell id="tJLfA4mEFXPNT2gWlWkk-20" value="Mostrar Mensaje: &quot; Lo sentimos mucho no se puede ingresar a la discoteca siendo menor de edad&quot;" style="shape=parallelogram;perimeter=parallelogramPerimeter;whiteSpace=wrap;html=1;fixedSize=1;rounded=1;fillColor=#fad7ac;strokeColor=#b46504;" vertex="1" parent="WIyWlLk6GJQsqaUBKTNV-1">
          <mxGeometry x="155.63" y="-1450" width="200" height="92.5" as="geometry" />
        </mxCell>
        <mxCell id="tJLfA4mEFXPNT2gWlWkk-22" value="No" style="rounded=0;whiteSpace=wrap;html=1;fillColor=#ffcccc;strokeColor=#36393d;" vertex="1" parent="WIyWlLk6GJQsqaUBKTNV-1">
          <mxGeometry x="273.13" y="-1487.5" width="60" height="27.5" as="geometry" />
        </mxCell>
        <mxCell id="tJLfA4mEFXPNT2gWlWkk-37" value="" style="edgeStyle=orthogonalEdgeStyle;rounded=0;orthogonalLoop=1;jettySize=auto;html=1;" edge="1" parent="WIyWlLk6GJQsqaUBKTNV-1" source="tJLfA4mEFXPNT2gWlWkk-19" target="tJLfA4mEFXPNT2gWlWkk-17">
          <mxGeometry relative="1" as="geometry" />
        </mxCell>
        <mxCell id="tJLfA4mEFXPNT2gWlWkk-19" value="Si" style="rounded=0;whiteSpace=wrap;html=1;fillColor=#008a00;fontColor=#ffffff;strokeColor=#005700;" vertex="1" parent="WIyWlLk6GJQsqaUBKTNV-1">
          <mxGeometry x="355.63" y="-1563.75" width="60" height="22.5" as="geometry" />
        </mxCell>
        <mxCell id="tJLfA4mEFXPNT2gWlWkk-31" value="&lt;div&gt;&lt;br&gt;&lt;/div&gt;FIN&lt;div&gt;&lt;br&gt;&lt;/div&gt;" style="ellipse;whiteSpace=wrap;html=1;fillColor=#d80073;strokeColor=#A50040;rounded=1;fontColor=#ffffff;" vertex="1" parent="WIyWlLk6GJQsqaUBKTNV-1">
          <mxGeometry x="215.63" y="-1271.25" width="80" height="80" as="geometry" />
        </mxCell>
      </root>
    </mxGraphModel>
  </diagram>
</mxfile>
